Coordinates
version=1
nRows=11
nColumns=36
inDegrees=yes

Units are S.I. units (second, meters, Newtons, ...)
If the header above contains a line with 'inDegrees', this indicates whether rotational values are in degrees (yes) or radians (no).

endheader
time	pelvis_tilt	pelvis_list	pelvis_rotation	pelvis_tx	pelvis_ty	pelvis_tz	hip_flexion_r	hip_adduction_r	hip_rotation_r	knee_angle_r	knee_angle_r_beta	ankle_angle_r	subtalar_angle_r	mtp_angle_r	hip_flexion_l	hip_adduction_l	hip_rotation_l	knee_angle_l	knee_angle_l_beta	ankle_angle_l	subtalar_angle_l	mtp_angle_l	lumbar_extension	lumbar_bending	lumbar_rotation	arm_flex_r	arm_add_r	arm_rot_r	elbow_flex_r	pro_sup_r	arm_flex_l	arm_add_l	arm_rot_l	elbow_flex_l	pro_sup_l
      2.69583330	    -13.59135939	      0.37806741	      3.90344495	      0.23311324	      0.93420379	     -0.05799467	     26.47347955	     -6.01065357	      0.83251202	     36.41683762	      0.63559372	      6.67858626	    -29.97240615	     -7.49999987	     32.23562027	     -3.00562406	      6.14605305	     40.82359924	      0.71250622	      0.65164869	    -26.04635864	     -7.49999987	     -7.98537539	     -2.37660884	      0.82009708	     92.10017761	    -35.37355295	     12.09131068	    111.91534755	     90.03961162	     96.82818620	    -32.83412037	     33.05760564	    107.92858824	     91.03957153
      2.70000000	    -13.13672271	      0.32354125	      4.06343915	      0.23787205	      0.94948532	     -0.05427736	     24.05592511	     -5.92169608	     -0.27321226	     33.00409650	      0.57603015	      5.17684489	    -28.42849930	     -7.49999987	     30.47496875	     -3.85136645	      5.26842300	     38.32747621	      0.66894065	     -1.50086612	    -24.38700805	     -7.49999987	     -7.80035704	     -2.69507081	      0.68556397	     90.76345459	    -35.54980934	     12.59499889	    113.06620916	     88.41154894	     96.45371134	    -33.11460954	     34.11410908	    108.32900323	     89.32852602
      2.70416670	    -12.56638285	      0.16642209	      3.93131076	      0.24227046	      0.95182667	     -0.05023641	     21.89575779	     -5.47214224	     -0.97264894	     30.16447327	      0.52646938	      4.79647410	    -26.71303839	     -7.49999987	     28.63995578	     -4.94262386	      4.07521221	     36.19131911	      0.63165768	     -2.49001342	    -22.30909793	     -7.49999987	     -7.55438247	     -3.30741349	      0.85599816	     89.00027567	    -35.69972792	     11.45310177	    113.41474941	     89.80752369	     97.26189041	    -32.80962892	     36.57291194	    107.32615877	     90.69130587
      2.70833330	    -12.56839724	      0.19173468	      3.82241885	      0.24622148	      0.95479522	     -0.05536873	     20.67481620	     -5.58361328	     -1.36990562	     28.12044372	      0.49079433	      3.86833885	    -25.81894516	     -7.49999987	     27.66117765	     -5.31591824	      2.95660157	     34.78112339	      0.60704512	     -3.49524976	    -21.31853439	     -7.49999987	     -6.63694907	     -3.40828877	      0.94683264	     88.04124746	    -36.17671408	     11.94947478	    113.36232018	     89.94757074	     96.20904537	    -33.15820914	     37.21402265	    107.34298298	     90.79124711
      2.71250000	    -12.15031466	      0.37831335	      3.73397850	      0.24640342	      0.96416918	     -0.05550364	     19.24217460	     -5.89347455	     -1.81565754	     26.25155461	      0.45817606	      2.72045723	    -24.85133030	     -7.49999987	     26.67700575	     -5.42452533	      2.26060407	     33.91254813	      0.59188562	     -4.54546572	    -20.42641214	     -7.49999987	     -6.46489609	     -3.67221027	      1.17467056	     87.43948507	    -36.18111171	     12.61317440	    112.87738572	     88.14989540	     95.46886302	    -32.81638400	     37.49762716	    106.89727942	     88.60205820
      2.71666670	    -12.33622246	      0.34728628	      3.76176462	      0.24613480	      0.97059842	     -0.05562748	     18.55896418	     -6.05412415	     -2.38852814	     24.57846254	      0.42897510	      1.27474893	    -23.95964037	     -7.49999987	     26.34145980	     -5.62815999	      1.34548528	     32.74368300	      0.57148508	     -5.79649621	    -19.64472529	     -7.49999987	     -5.84021101	     -3.62672526	      1.47996031	     87.51414674	    -37.32086119	     13.78403481	    112.91509263	     89.45551701	     94.90806396	    -32.37114241	     37.72795089	    107.15563143	     89.57439618
      2.72083330	    -12.50875388	      0.43624500	      3.76992764	      0.24666578	      0.97890010	     -0.05579327	     18.05134146	     -6.29560662	     -2.92748295	     22.92919374	      0.40018993	      0.04538571	    -22.28639689	     -7.49999987	     26.08635953	     -5.66203717	      0.53635097	     31.89981601	      0.55675682	     -7.46310778	    -19.26591938	     -7.49999987	     -5.43991385	     -3.61411230	      1.57554375	     87.29127955	    -37.96566818	     14.24713671	    113.17100563	     91.31753700	     94.53846030	    -32.05364852	     38.24294749	    107.75984002	     91.10303535
      2.72500000	    -12.37077767	      0.30895937	      4.21427749	      0.25136031	      0.99401789	     -0.05252981	     16.62693591	     -6.13903709	     -2.93647290	     20.53769088	      0.35845033	     -2.83642584	    -20.73853055	     -7.49999987	     24.98505726	     -6.09071673	     -0.22563909	     29.74202294	      0.51909623	     -9.74957998	    -18.00363912	     -7.49999987	     -5.31284171	     -3.30044763	      1.54202554	     86.27483138	    -38.52930060	     14.80471523	    114.17837650	     89.66119193	     94.07829478	    -32.15705421	     39.21202334	    108.86341172	     89.56175366
      2.72916670	    -12.72598694	      0.41647467	      4.47011230	      0.25170348	      0.99568907	     -0.05262023	     16.13452825	     -6.34290703	     -3.09325031	     18.71830402	      0.32669604	     -5.72485067	    -19.38568293	     -7.49999987	     24.43662783	     -6.24706593	     -1.24991905	     27.58935453	      0.48152508	    -12.20092537	    -16.41482045	     -7.49999987	     -4.62462293	     -3.22544505	      1.43675642	     86.21319744	    -38.64473568	     15.91883245	    114.14094326	     89.65694989	     93.75014477	    -32.34552545	     40.05809302	    109.78684106	     89.61691326
      2.73333330	    -13.02864035	      0.35303418	      4.74792609	      0.25198448	      0.99928604	     -0.05312822	     15.39030207	     -6.55977973	     -3.58238201	     16.43714473	      0.28688230	     -8.69769550	    -18.69350230	     -7.49999987	     24.16664643	     -6.56025675	     -2.37510145	     25.81821334	      0.45061283	    -14.80416388	    -14.84379708	     -7.49999987	     -4.21234054	     -2.94347543	      1.08429973	     86.70840226	    -38.66717091	     17.57709006	    113.91106779	     89.51467039	     93.37133371	    -33.15745515	     40.91003392	    111.29469675	     89.57494699
      2.73750000	    -13.47707916	      0.36033006	      5.05277351	      0.25631489	      1.00570786	     -0.05818604	     14.83458557	     -7.04515503	     -4.43921161	     14.24833340	      0.24868033	    -11.94143224	    -17.37494090	     -7.49999987	     23.74867332	     -6.47462337	     -3.47329679	     23.68727497	      0.41342094	    -17.75809857	    -13.32491640	     -7.49999987	     -3.23473722	     -2.86039434	      0.73997312	     86.11083115	    -39.26764336	     18.77943241	    114.26138728	     89.60693813	     92.26366925	    -33.08669320	     41.54420360	    112.19588893	     89.65468270
